# xmcd
#
# Track frame offsets:
#	150
#	18812
#	32838
#	49632
#	66338
#	80117
#	99171
#	121683
#	136999
#	155470
#	174468
#	186337
#	206248
#	220517
#	232731
#
# Disc length: 3365 seconds
#
# Revision: 1
# Processed by: cddbd v1.5.1PL0 Copyright (c) Steve Scherf et al.
# Submitted via: audiograbber 1.82.02
#
DISCID=c10d230f
DTITLE=Various Artist - CB60016
DYEAR=1900
DGENRE=Karaoke
TTITLE0=Tritt, Travis - I'm Gonna Be Somebody
TTITLE1=Williams, Hank Jr. - All My Rowdy Friends Are Coming Over
TTITLE2=Charlie Daniels Band, The - Devil Went Down To Georgia, The
TTITLE3=Tritt, Travis - Ten Feet Tall and Bulletproof
TTITLE4=Williams, Hank Jr. - Born To Boogie
TTITLE5=Charlie Daniels Band, The - Long Haired Country Boy
TTITLE6=Tritt, Travis - Lord Have Mercy On The Working Man
TTITLE7=Williams, Hank Jr. - Whiskey Bent And Hell Bound
TTITLE8=Tritt, Travis - Help Me Hold On
TTITLE9=Williams, Hank Jr. - Family Tradition
TTITLE10=Tritt, Travis - Here's A Quarter
TTITLE11=Williams, Hank Jr. - Country Boy Can Survive, A
TTITLE12=Tritt, Travis - T-R-O-U-B-L-E
TTITLE13=Williams, Hank Jr. - Ain't Nobody's Business
TTITLE14=Tritt, Travis - Put Some Drive In Your Country
EXTD=
EXTT0=
EXTT1=
EXTT2=
EXTT3=
EXTT4=
EXTT5=
EXTT6=
EXTT7=
EXTT8=
EXTT9=
EXTT10=
EXTT11=
EXTT12=
EXTT13=
EXTT14=
PLAYORDER=
